<svg xmlns="http://www.w3.org/2000/svg" width="531.684" height="442.684" viewBox="0 0 531.684 442.684">
  <g id="Group_1" data-name="Group 1" transform="translate(-694 -136)">
    <path id="Path_2" data-name="Path 2" d="M221.342,0C343.586,0,442.684,99.1,442.684,221.342s-99.1,221.342-221.342,221.342S0,343.586,0,221.342,99.1,0,221.342,0Z" transform="translate(739 136)" fill="#fff" opacity="0.403"/>
    <path id="Path_3" data-name="Path 3" d="M221.342,0C343.586,0,442.684,99.1,442.684,221.342s-99.1,221.342-221.342,221.342S0,343.586,0,221.342,99.1,0,221.342,0Z" transform="translate(768 136)" fill="#c9deac" opacity="0.403"/>
    <path id="Path_4" data-name="Path 4" d="M221.342,0C343.586,0,442.684,99.1,442.684,221.342s-99.1,221.342-221.342,221.342S0,343.586,0,221.342,99.1,0,221.342,0Z" transform="translate(712 136)" fill="#c9deac" opacity="0.398"/>
    <path id="Path_5" data-name="Path 5" d="M221.342,0C343.586,0,442.684,99.1,442.684,221.342s-99.1,221.342-221.342,221.342S0,343.586,0,221.342,99.1,0,221.342,0Z" transform="translate(783 136)" fill="#c9deac" opacity="0.196"/>
    <path id="Path_6" data-name="Path 6" d="M221.342,0C343.586,0,442.684,99.1,442.684,221.342s-99.1,221.342-221.342,221.342S0,343.586,0,221.342,99.1,0,221.342,0Z" transform="translate(694 136)" fill="#c9deac" opacity="0.196"/>
  </g>
</svg>
